HIERARCHY
ROOT root
{
	OFFSET 0.000000 0.000000 0.000000
	CHANNELS 6 Xposition Yposition Zposition Zrotation Yrotation Xrotation
	JOINT lhip
	{
		OFFSET 0.058581 -0.082280 -0.017664
		CHANNELS 3 Zrotation Yrotation Xrotation
		JOINT lknee
		{
			OFFSET 0.043451 -0.386469 0.008037
			CHANNELS 3 Zrotation Yrotation Xrotation
			JOINT lankle
			{
				OFFSET -0.014790 -0.426874 -0.037428
				CHANNELS 3 Zrotation Yrotation Xrotation
				JOINT ltoe
				{
					OFFSET 0.041054 -0.060286 0.122042
					CHANNELS 3 Zrotation Yrotation Xrotation
					End Site
					{
						OFFSET 0.000000 0.000000 0.000000
					}
				}
			}
		}
	}
	JOINT rhip
	{
		OFFSET -0.060310 -0.090513 -0.013543
		CHANNELS 3 Zrotation Yrotation Xrotation
		JOINT rknee
		{
			OFFSET -0.043257 -0.383688 -0.004843
			CHANNELS 3 Zrotation Yrotation Xrotation
			JOINT rankle
			{
				OFFSET 0.019056 -0.420046 -0.034562
				CHANNELS 3 Zrotation Yrotation Xrotation
				JOINT rtoe
				{
					OFFSET -0.034840 -0.062106 0.130323
					CHANNELS 3 Zrotation Yrotation Xrotation
					End Site
					{
						OFFSET 0.000000 0.000000 0.000000
					}
				}
			}
		}
	}
	JOINT lowerback
	{
		OFFSET 0.004439 0.124404 -0.038385
		CHANNELS 3 Zrotation Yrotation Xrotation
		JOINT upperback
		{
			OFFSET 0.004488 0.137956 0.026820
			CHANNELS 3 Zrotation Yrotation Xrotation
			JOINT chest
			{
				OFFSET -0.002265 0.056032 0.002855
				CHANNELS 3 Zrotation Yrotation Xrotation
				JOINT lowerneck
				{
					OFFSET -0.013390 0.211636 -0.033468
					CHANNELS 3 Zrotation Yrotation Xrotation
					JOINT upperneck
					{
						OFFSET 0.010113 0.088937 0.050410
						CHANNELS 3 Zrotation Yrotation Xrotation
						End Site
						{
							OFFSET 0.000000 0.000000 0.000000
						}
					}
				}
				JOINT lclavicle
				{
					OFFSET 0.071702 0.114000 -0.018898
					CHANNELS 3 Zrotation Yrotation Xrotation
					JOINT lshoulder
					{
						OFFSET 0.122921 0.045205 -0.019046
						CHANNELS 3 Zrotation Yrotation Xrotation
						JOINT lelbow
						{
							OFFSET 0.255332 -0.015649 -0.022946
							CHANNELS 3 Zrotation Yrotation Xrotation
							JOINT lwrist
							{
								OFFSET 0.265709 0.012698 -0.007375
								CHANNELS 3 Zrotation Yrotation Xrotation
								End Site
								{
									OFFSET 0.000000 0.000000 0.000000
								}
							}
						}
					}
				}
				JOINT rclavicle
				{
					OFFSET -0.082954 0.112472 -0.023707
					CHANNELS 3 Zrotation Yrotation Xrotation
					JOINT rshoulder
					{
						OFFSET -0.113228 0.046853 -0.008472
						CHANNELS 3 Zrotation Yrotation Xrotation
						JOINT relbow
						{
							OFFSET -0.260127 -0.014369 -0.031269
							CHANNELS 3 Zrotation Yrotation Xrotation
							JOINT rwrist
							{
								OFFSET -0.269108 0.006794 -0.006027
								CHANNELS 3 Zrotation Yrotation Xrotation
								End Site
								{
									OFFSET 0.000000 0.000000 0.000000
								}
							}
						}
					}
				}
			}
		}
	}
}
MOTION
Frames: 7
Frame Time: 0.033333
-2.090919 0.680662 1.015815 43.551626 0.274683 90.048984 2.394487 2.167166 -5.468934 -2.531223 10.094590 14.534780 1.913542 9.314675 -11.162141 0.000000 -0.000000 0.000000 1.981213 -4.755307 -5.429887 -4.275811 -12.740101 19.116753 4.031961 -8.995978 -5.712316 0.000000 -0.000000 0.000000 -2.612686 1.655694 6.912027 1.183436 -2.191048 1.073305 2.372291 -1.050396 1.358361 -0.027467 19.687707 -8.242101 -2.701298 17.792548 -5.474649 -12.585855 -5.326389 -0.926685 -59.535552 -12.156590 26.193756 -121.122028 -65.992291 141.563572 -8.684193 -6.332222 -29.013913 9.372185 5.055671 -0.521939 61.930847 4.684630 34.118634 134.552097 72.624927 142.960829 17.839202 9.679968 -52.860201 
-2.087166 0.686613 1.014794 47.060931 0.416389 90.004006 1.693868 1.378542 -5.057399 -2.463697 8.168242 12.643914 2.211369 9.696480 -10.818352 0.000000 -0.000000 0.000000 1.955517 -5.293911 -5.379668 -4.461074 -12.908317 19.466714 3.801131 -10.623164 -5.765504 0.000000 -0.000000 0.000000 -2.561009 1.673703 6.415529 1.491673 -2.233044 1.088345 2.396799 -1.167139 1.936878 -0.196832 18.135191 -7.981121 -2.593610 16.725702 -6.481967 -11.489555 -4.828518 -1.127255 -60.324235 -12.502270 27.985169 -121.359158 -64.034844 140.451981 -3.208332 -3.719599 -37.065700 9.147819 4.506656 -1.040225 62.097898 4.973017 34.938859 134.439516 72.207513 141.881403 13.537489 7.231457 -53.891761 
-2.082254 0.693262 1.013661 50.023384 0.482857 89.584445 1.047036 0.363502 -4.120190 -2.592114 6.402390 11.075072 2.113354 9.159757 -10.893568 0.000000 -0.000000 0.000000 1.494493 -5.543346 -4.853721 -4.767601 -13.856406 19.911296 4.012552 -11.171062 -6.788797 0.000000 -0.000000 0.000000 -2.409613 1.811751 6.948151 1.549248 -2.181407 0.613920 2.461016 -0.965182 1.957018 0.001535 17.116557 -7.748684 -2.285571 15.021749 -6.414582 -11.357112 -4.395542 -1.388555 -60.742638 -12.338030 28.405917 -120.854802 -64.067842 139.119568 -1.478607 -4.326053 -37.383753 9.412414 4.241660 -1.164436 62.257298 4.484341 34.878593 133.589364 72.633334 140.836012 11.964506 6.123755 -52.864900 
-2.077096 0.700145 1.011778 52.561093 0.752025 89.454922 0.736884 -0.096262 -3.413904 -2.685321 4.245563 9.708172 1.878942 8.555083 -11.858381 0.000000 -0.000000 0.000000 1.044880 -5.539221 -4.549794 -4.495107 -14.019673 20.454003 3.991585 -10.982900 -8.391969 0.000000 -0.000000 0.000000 -2.309001 2.218953 6.891369 1.718034 -1.637473 0.125475 2.665554 -0.999475 2.133925 0.467770 16.003994 -7.376042 -1.910915 13.365074 -6.182324 -11.183014 -3.882791 -1.421096 -61.219884 -12.255559 28.468777 -120.744832 -64.450367 139.344017 -1.478717 -4.998833 -37.209609 9.588013 4.021727 -1.234166 62.281935 3.992701 34.597140 133.488198 72.529516 140.710272 11.551548 6.875646 -53.362374 
-2.071964 0.706864 1.008328 54.990767 0.740418 89.278903 0.251736 -0.276177 -2.508025 -3.054421 1.554972 8.194226 1.801274 7.804854 -13.087121 0.000000 -0.000000 0.000000 0.257030 -5.520191 -4.556282 -4.459947 -13.662129 21.993627 4.139763 -10.406514 -11.286994 0.000000 -0.000000 0.000000 -2.216689 2.344491 6.565073 1.628505 -1.103102 -0.078750 2.496348 -0.831495 2.393107 1.293602 14.939945 -7.084557 -1.719085 11.289770 -5.452765 -11.129299 -2.758865 -2.072992 -61.083346 -12.711200 27.995446 -119.972437 -64.719243 140.270436 -1.388755 -6.179839 -34.850867 9.791468 3.714571 -1.612931 62.384936 3.670955 34.402309 131.012510 72.568428 138.480043 11.404060 7.987588 -53.785857 
-2.068053 0.713236 1.004474 57.612891 0.720199 89.345814 -0.068609 -0.069212 -2.773244 -3.542166 -0.222129 8.176815 1.748986 7.102453 -14.325208 0.000000 -0.000000 0.000000 -0.337329 -5.243938 -4.934078 -4.353925 -13.112303 23.679580 3.749323 -10.121119 -12.989904 0.000000 -0.000000 0.000000 -2.393881 2.125242 6.184951 1.834143 -0.628215 -0.060705 2.173719 -0.656455 2.488270 2.135681 13.788659 -7.096940 -1.692035 9.372380 -5.180140 -11.161880 -1.328379 -3.029230 -60.249200 -13.648081 26.620340 -121.542259 -64.752595 147.417998 -6.197832 -6.981010 -33.182042 10.204655 3.281150 -1.976871 62.500984 3.517762 34.043638 129.918588 73.124988 139.061604 13.893188 9.938001 -54.512979 
-2.065524 0.718705 1.002618 60.605832 0.544949 88.990362 -0.303762 -0.995243 -3.076010 -4.429429 -1.402705 8.810028 1.300350 6.399459 -15.314436 0.000000 -0.000000 0.000000 -0.724074 -4.878163 -4.415395 -4.363062 -12.466067 24.453040 3.808590 -9.732031 -14.567512 0.000000 -0.000000 0.000000 -2.890904 2.533961 6.605883 1.808146 -0.677266 -0.371745 2.151768 -0.779210 2.506250 2.639728 12.819065 -7.037734 -0.954723 7.379311 -5.037136 -11.355825 -1.732598 -2.639602 -59.886233 -13.453378 27.038683 -121.146894 -65.161573 145.184725 -4.697297 -8.286587 -33.925565 10.654783 3.127264 -2.193198 62.306084 2.989339 33.934538 130.002120 73.261899 138.833779 12.770187 9.773567 -54.068971 
